<?xml version="1.0" encoding="iso-8859-1"?>
<!-- Generator: Adobe Illustrator 19.0.0, SVG Export Plug-In . SVG Version: 6.00 Build 0)  -->
<svg version="1.1" id="Capa_1" xmlns="http://www.w3.org/2000/svg" xmlns:xlink="http://www.w3.org/1999/xlink" x="0px" y="0px"
	 viewBox="0 0 512 512" style="enable-background:new 0 0 512 512;" xml:space="preserve">
<linearGradient id="SVGID_1_" gradientUnits="userSpaceOnUse" x1="-34.1074" y1="644.9879" x2="-34.1074" y2="620.7129" gradientTransform="matrix(20.48 0 0 -20.48 954.52 13224.1992)">
	<stop  offset="0" style="stop-color:#FF5D3B"/>
	<stop  offset="1" style="stop-color:#FF2D67"/>
</linearGradient>
<path style="fill:url(#SVGID_1_);" d="M366.49,241.807l-143.36,184.32c-2.007,2.56-4.997,3.953-8.09,3.953
	c-1.577,0-3.154-0.369-4.628-1.106c-4.362-2.232-6.554-7.229-5.202-11.94l37.212-130.314H153.6c-3.912,0-7.475-2.232-9.196-5.734
	c-1.72-3.523-1.27-7.7,1.126-10.793l143.36-184.32c3.011-3.891,8.335-5.059,12.718-2.847c4.362,2.212,6.554,7.229,5.202,11.94
	L269.599,225.28H358.4c3.932,0,7.496,2.232,9.216,5.734C369.336,234.537,368.886,238.715,366.49,241.807 M256,0
	C114.852,0,0,114.831,0,256c0,141.148,114.852,256,256,256c141.169,0,256-114.852,256-256C512,114.831,397.169,0,256,0"/>
<g>
</g>
<g>
</g>
<g>
</g>
<g>
</g>
<g>
</g>
<g>
</g>
<g>
</g>
<g>
</g>
<g>
</g>
<g>
</g>
<g>
</g>
<g>
</g>
<g>
</g>
<g>
</g>
<g>
</g>
</svg>
